<svg id="visual" viewBox="0 0 2000 2000" width="2000" height="2000" xmlns="http://www.w3.org/2000/svg" xmlns:xlink="http://www.w3.org/1999/xlink" version="1.1"><rect x="0" y="0" width="2000" height="2000" fill="#ffffff"></rect><defs><linearGradient id="grad1_0" x1="0%" y1="0%" x2="100%" y2="100%"><stop offset="30%" stop-color="#ffffff" stop-opacity="1"></stop><stop offset="70%" stop-color="#ffffff" stop-opacity="1"></stop></linearGradient></defs><defs><linearGradient id="grad2_0" x1="0%" y1="0%" x2="100%" y2="100%"><stop offset="30%" stop-color="#ffffff" stop-opacity="1"></stop><stop offset="70%" stop-color="#ffffff" stop-opacity="1"></stop></linearGradient></defs><g transform="translate(2000, 0)"><path d="M0 565.7C-55.8 477.1 -111.6 388.5 -203.5 352.5C-295.4 316.4 -423.5 332.8 -489.9 282.8C-556.3 232.8 -561 116.4 -565.7 0L0 0Z" fill="#329f00"></path></g><g transform="translate(0, 2000)"><path d="M0 -565.7C114.6 -559.9 229.2 -554.2 282.8 -489.9C336.5 -425.6 329.3 -302.9 366.3 -211.5C403.3 -120.1 484.5 -60.1 565.7 0L0 0Z" fill="#329f00"></path></g></svg>