<?xml version="1.0" standalone="no"?>
<svg xmlns:xlink="http://www.w3.org/1999/xlink" id="wave" style="transform:rotate(0deg); transition: 0.3s" viewBox="0 0 1440 220" version="1.1" xmlns="http://www.w3.org/2000/svg"><defs><linearGradient id="sw-gradient-0" x1="0" x2="0" y1="1" y2="0"><stop stop-color="rgba(59, 139, 196)" offset="0%"/><stop stop-color="rgba(59, 139, 196)" offset="100%"/></linearGradient></defs><path style="transform:translate(0, 0px); opacity:1" fill="url(#sw-gradient-0)" d="M0,198L1440,66L2880,66L4320,110L5760,88L7200,44L8640,176L10080,198L11520,44L12960,132L14400,110L15840,110L17280,88L18720,0L20160,0L21600,0L23040,198L24480,154L25920,154L27360,132L28800,176L30240,44L31680,22L33120,44L34560,44L34560,220L33120,220L31680,220L30240,220L28800,220L27360,220L25920,220L24480,220L23040,220L21600,220L20160,220L18720,220L17280,220L15840,220L14400,220L12960,220L11520,220L10080,220L8640,220L7200,220L5760,220L4320,220L2880,220L1440,220L0,220Z"/></svg>