<?xml version="1.0" standalone="no"?>
<svg xmlns:xlink="http://www.w3.org/1999/xlink" id="wave" style="transform:rotate(180deg); transition: 0.3s" viewBox="0 0 1440 260" version="1.1" xmlns="http://www.w3.org/2000/svg"><defs><linearGradient id="sw-gradient-0" x1="0" x2="0" y1="1" y2="0"><stop stop-color="rgba(68, 198, 60, 1)" offset="0%"/><stop stop-color="rgba(68, 198, 60, 1)" offset="100%"/></linearGradient></defs><path style="transform:translate(0, 0px); opacity:1" fill="url(#sw-gradient-0)" d="M0,26L1440,234L2880,52L4320,78L5760,182L7200,156L8640,52L10080,130L11520,130L12960,52L14400,234L15840,130L17280,156L18720,52L20160,208L21600,182L23040,26L24480,130L25920,182L27360,156L28800,208L30240,208L31680,208L33120,208L34560,78L34560,260L33120,260L31680,260L30240,260L28800,260L27360,260L25920,260L24480,260L23040,260L21600,260L20160,260L18720,260L17280,260L15840,260L14400,260L12960,260L11520,260L10080,260L8640,260L7200,260L5760,260L4320,260L2880,260L1440,260L0,260Z"/></svg>